<?xml version="1.0" encoding="utf-8"?>
<!-- Generator: Adobe Illustrator 23.0.5, SVG Export Plug-In . SVG Version: 6.00 Build 0)  -->
<svg version="1.1" id="Layer_1" xmlns="http://www.w3.org/2000/svg" xmlns:xlink="http://www.w3.org/1999/xlink" x="0px" y="0px"
	 viewBox="0 0 509 509" style="enable-background:new 0 0 509 509;" xml:space="preserve">
<style type="text/css">
	.st0{fill:#FFFFFF;stroke:#FFFFFF;stroke-miterlimit:10;}
	.st1{fill:none;stroke:#FFFFFF;stroke-miterlimit:10;}
	.st2{fill:#050F1F;stroke:#FFFFFF;stroke-miterlimit:10;}
	.st3{fill:#64FFDA;}
</style>
<rect x="6.5" y="69.1" class="st0" width="496" height="352.8"/>
<line class="st1" x1="-78.1" y1="564.5" x2="-78.1" y2="564.4"/>
<line class="st1" x1="-132.4" y1="564.5" x2="-132.4" y2="564.4"/>
<line class="st1" x1="-7.4" y1="455.5" x2="-7.4" y2="455.5"/>
<line class="st1" x1="-150.6" y1="455.5" x2="-151.1" y2="455.5"/>
<path class="st2" d="M357.4,416.8c0.2,0.6-0.2,1.2-0.8,1.3c-3.3,0.2-6.6,0.3-9.9,0.3c-27.3,0-54.5-6.2-79.1-18.3
	c-10.5-5.1-20.5-11.3-29.8-18.4c-21.1-16-30.2-41.4-39.2-65.3c-2.4-6.3-4.8-12.7-7.1-19l-4.5-11.9c-0.3-0.8-1.4-0.8-1.8,0
	c-3.4,9.2-16.4,43.8-28.1,75.4c-10.3,27.5-19.7,52.7-21.2,56.9c-0.1,0.4-0.5,0.6-0.9,0.6H7.6c-0.6,0-1-0.5-0.9-1.1
	c9.7-62.2,37-127.6,81.9-186.9c42.9-56.7,95.6-99.6,150.2-126.1c0.5-0.2,1.1,0,1.3,0.5L357.4,416.8z"/>
<line class="st1" x1="376.4" y1="471.8" x2="376.3" y2="471.4"/>
<path class="st3" d="M492.6,119.5l-76.7,76.7c-10.5-10.4-25-16.7-41-16.7c-31.3,0-56.8,24.5-58.4,55.3l-20.8-55.4L264,94.9
	c0.1-0.1,0.1-0.1,0.2-0.2c2.1-1.6,4.1-3.1,6.3-4.6c0,0,0,0,0,0c76.5-27.7,153.8-23,211,20.2C485.4,113.3,489.1,116.3,492.6,119.5z"
	/>
<path class="st3" d="M501.3,364.4c-30.1,30.3-71,50-116.5,52.8l-0.5-1.2l-44.8-119.5l-6.6-17.7c10.6,10.9,25.5,17.7,42,17.7
	c16.2,0,30.8-6.5,41.4-17.1L501.3,364.4z"/>
<line class="st1" x1="376.4" y1="471.8" x2="376.3" y2="471.4"/>
</svg>
